<svg width="64" height="64" xmlns="http://www.w3.org/2000/svg" color-interpolation-filters="sRGB" preserveAspectRatio="xMidYMid meet" version="1.0">
 <!---->

 <g>
  <title>Layer 1</title>
  <g id="svg_6" class="icon-text-wrapper icon-svg-group iconsvg" fill="#ffffff">
   <g id="svg_7" class="iconsvg-imagesvg">
    <g id="svg_8">
     <rect id="svg_9" class="image-rect" height="60.20107" width="60" y="1.89946" x="1.76999" stroke-width="2" fill-opacity="0" fill="#ffffff"/>
     <svg id="svg_10" class="image-svg-svg primary" filtersec="colorsb1073255392" height="60.20107" width="60" y="1.89946" x="1.76999">
      <svg id="svg_11" viewBox="-0.00044918060302734375 -0.0018559506861492991 180.9171905517578 181.523193359375" xmlns="http://www.w3.org/2000/svg">
       <defs>
        <linearGradient y2="0.19266" x2="0.80833" y1="0.85307" x1="0.1457" id="svg_3">
         <stop stop-color="#2ef0ff" offset="0"/>
         <stop stop-color="#2340fe" offset="0.49"/>
         <stop stop-color="#f001ff" offset="0.99"/>
        </linearGradient>
       </defs>
       <path id="svg_12" fill="url(#svg_3)" d="m113.61,34.23c0,9.33 0.19,18.67 -0.07,28c-0.13,4.35 1.28,5.79 5.69,5.75c18.49,-0.21 37,0 55.48,-0.18c4.86,-0.06 6.32,1.58 6.2,6.32c-0.28,11.49 -0.21,23 0,34.48c0.07,4.07 -1.3,5.77 -5.44,5.63c-5.66,-0.18 -11.33,0 -17,0c-2.33,0 -4.19,0.52 -5.22,3s0.12,4.1 1.74,5.7c4.38,4.34 8.66,8.78 13.11,13.05c2,1.94 2,3.4 0,5.37q-13.51,13.33 -26.85,26.86c-2.23,2.27 -3.89,2.45 -6.17,0.05c-4.24,-4.47 -8.75,-8.68 -13.09,-13.05c-1.5,-1.52 -2.88,-2.56 -5.23,-1.58s-3.2,2.55 -3.16,5c0.09,5.83 -0.11,11.66 0.05,17.49c0.11,3.74 -1.13,5.45 -5.15,5.4q-18,-0.26 -36,0c-3.83,0.05 -5.46,-1.27 -5.32,-5.21c0.2,-5.66 0,-11.33 0.07,-17c0.06,-2.76 -0.56,-4.67 -3.43,-5.85s-4,0.42 -5.55,2c-4.24,4.24 -8.56,8.41 -12.67,12.77c-2,2.13 -3.53,2.48 -5.73,0.24q-13.5,-13.71 -27.22,-27.21c-2.11,-2.07 -1.67,-3.53 0.24,-5.37c4.2,-4 8.25,-8.24 12.37,-12.37c1.77,-1.77 3.68,-3.35 2.3,-6.42s-3.82,-2.79 -6.31,-2.81c-5.5,0 -11,-0.08 -16.49,0c-3.31,0 -4.79,-1.25 -4.76,-4.75q0.2,-18.84 0,-37.54c0,-3 1.11,-4.15 4.09,-4.09c6,0.11 12,0 18,0c2.6,0 4.41,-0.63 5.49,-3.26s-0.18,-4.1 -1.79,-5.65c-4.36,-4.34 -8.61,-8.81 -13.09,-13.05c-2.33,-2.21 -1.8,-3.77 0.22,-5.76q13.52,-13.4 26.85,-26.92c2.16,-2.2 3.72,-2.06 5.77,0.08c4.26,4.46 8.72,8.72 13,13.11c1.62,1.64 3.11,2.77 5.66,1.61s3,-2.77 3,-5.15c0,-5.83 0.13,-11.67 0,-17.49c-0.12,-3.78 1.17,-5.43 5.15,-5.43c12,0.14 24,0.17 36,0c4.3,-0.07 5.41,1.84 5.34,5.75c-0.19,9.49 -0.08,18.99 -0.08,28.48zm-15.22,34.88l-8.48,0c-12.6,0.29 -21.44,9.49 -21.31,22.15a21.83,21.83 0 0 0 43.65,0.27c0.15,-6.15 -0.06,-12.31 0.08,-18.46c0.07,-2.93 -0.77,-4.3 -4,-4.06s-6.61,0.1 -9.94,0.1z"/>
      </svg>
     </svg>
     <!---->
    </g>
   </g>
   <g id="svg_13">
    <g id="svg_14" class="tp-name iconsvg-namesvg" data-gra="path-name">
     <g id="svg_15" transform="translate(32.77 94.8995) scale(1 1)">
      <g id="svg_16">
       <path id="svg_17" d="m43.49,-59.31166l4.21,0l8.01,-20.47l-4.5,0l-5.39,15.67l-0.26,0l-5.41,-15.67l-4.15,0l7.49,20.47zm22.28,-20.76l0,3.74c3.86,0 6.78,2.22 6.78,6.78c0,4.57 -2.92,6.82 -6.78,6.82c-3.74,0 -6.64,-2.25 -6.64,-6.82c0,0 -3.98,0 -3.98,0c0,6.76 4.71,10.53 10.62,10.53c6.05,0 10.73,-3.48 10.73,-10.53c0,-6.72 -4.68,-10.52 -10.73,-10.52zm13.8,20.76l3.95,0l0,-7.22l4.59,0l3.83,7.22l4.45,0l-4.77,-7.9c2.49,-1.22 3.6,-3.91 3.6,-6.11c0,-4.12 -2.57,-6.46 -7.2,-6.46l-8.45,0l0,3.45l8.02,0c2.63,0 3.91,1.08 3.91,3.1c0,2.16 -1.52,3.42 -3.88,3.42l-8.05,0l0,10.5zm16.73,-20.47l0,3.83l16.26,0l0,-3.83l-16.26,0zm6.17,6.43l0,14.04l3.95,0l0,-14.04l-3.95,0zm27.2,-2.6l0,-3.83l-15.15,0l0,3.83l15.15,0zm0,8.22l0,-3.63l-15.15,0l0,3.63l15.15,0zm-15.15,8.42l15.15,0l0,-3.86l-15.15,0l0,3.86zm21.55,-20.47l-4.24,0l6.64,9.82l0,0.06l-7.31,10.59l4.45,0l4.94,-7.6l0.11,0l5.03,7.6l4.3,0l-13.92,-20.47zm8.1,8.07l5.18,-8.07l-4.18,0l-3.1,5.06l2.1,3.01zm5.91,-8.07l0,3.36l6.17,0l0,17.11l3.95,0l0,-17.11l6.14,0l0,-3.36l-16.26,0zm18.45,20.47l3.95,0l0,-7.22l4.59,0l3.84,7.22l4.44,0l-4.77,-7.9c2.49,-1.22 3.6,-3.91 3.6,-6.11c0,-4.12 -2.57,-6.46 -7.19,-6.46l-8.46,0l0,3.45l8.02,0c2.63,0 3.92,1.08 3.92,3.1c0,2.16 -1.52,3.42 -3.89,3.42l-8.05,0l0,10.5zm29.48,-20.47l-5,0l-7.34,20.47l4.27,0l5.44,-16.23l0.29,0l5.82,16.23l4.57,0l-8.05,-20.47zm9.98,0l0,3.83l7.16,0c3.48,0 6.08,1.35 6.08,6.4c0,5.09 -2.57,6.38 -6.05,6.38l-7.19,0l0,3.86l8.45,0c6.23,0 8.95,-4.45 8.95,-10.24c0,-5.82 -2.72,-10.23 -8.95,-10.23l-8.45,0zm35.47,3.83l0,-3.83l-15.15,0l0,3.83l15.15,0zm0,8.22l0,-3.63l-15.15,0l0,3.63l15.15,0zm-15.15,8.42l15.15,0l0,-3.86l-15.15,0l0,3.86z"/>
      </g>
      <!---->
      <!---->
      <!---->
      <!---->
      <!---->
      <!---->
      <!---->
     </g>
    </g>
    <g id="svg_18" fill="#ffffff" class="tp-slogan iconsvg-slogansvg" data-gra="path-slogan">
     <!---->
     <!---->
     <g id="svg_19" transform="translate(32.77 94.8995) scale(1 1)">
      <g id="svg_20" transform="translate(67 12.9283) scale(1 1)">
       <path id="svg_21" d="m-16.57026,-65.82561l0,7.04l0.84,0l0,-3.68c0,-0.37 -0.01,-0.74 -0.03,-1.11c-0.03,-0.37 -0.06,-0.73 -0.09,-1.09l0.05,0l0.76,1.45l2.55,4.43l0.92,0l0,-7.04l-0.84,0l0,3.64c0,0.37 0.01,0.75 0.03,1.13c0.03,0.38 0.05,0.75 0.07,1.11l-0.04,0l-0.76,-1.46l-2.54,-4.42l-0.92,0zm9.93,4.18l-2.12,0l0.34,-1.08c0.13,-0.39 0.25,-0.78 0.36,-1.17c0.12,-0.39 0.23,-0.79 0.33,-1.2l0.05,0c0.11,0.41 0.23,0.81 0.34,1.2c0.11,0.39 0.24,0.78 0.36,1.17l0.34,1.08zm0.22,0.71l0.67,2.15l0.95,0l-2.38,-7.04l-1.01,0l-2.38,7.04l0.91,0l0.68,-2.15l2.56,0zm1.5,-4.89l2.26,7.04l1.04,0l2.23,-7.04l-0.91,0l-1.13,3.8c-0.12,0.42 -0.23,0.81 -0.33,1.17c-0.1,0.36 -0.22,0.74 -0.35,1.16l-0.04,0c-0.14,-0.42 -0.25,-0.8 -0.35,-1.16c-0.09,-0.36 -0.21,-0.75 -0.34,-1.17l-1.12,-3.8l-0.96,0zm6.49,0l0,7.04l0.89,0l0,-7.04l-0.89,0zm2.42,3.52c0,0.57 0.07,1.09 0.23,1.54c0.16,0.46 0.38,0.84 0.66,1.15c0.27,0.31 0.61,0.55 0.99,0.71c0.39,0.17 0.81,0.25 1.28,0.25c0.47,0 0.89,-0.08 1.27,-0.23c0.38,-0.16 0.68,-0.35 0.91,-0.59l0,-2.96l-2.31,0l0,0.74l1.49,0l0,1.84c-0.14,0.13 -0.33,0.23 -0.55,0.3c-0.23,0.08 -0.46,0.12 -0.71,0.12c-0.38,0 -0.72,-0.07 -1.01,-0.21c-0.29,-0.13 -0.53,-0.33 -0.73,-0.58c-0.19,-0.25 -0.34,-0.55 -0.45,-0.9c-0.1,-0.36 -0.15,-0.76 -0.15,-1.2c0,-0.44 0.05,-0.83 0.16,-1.18c0.11,-0.35 0.27,-0.65 0.47,-0.89c0.2,-0.25 0.44,-0.44 0.73,-0.57c0.29,-0.14 0.61,-0.2 0.97,-0.2c0.35,0 0.65,0.06 0.88,0.19c0.23,0.12 0.44,0.28 0.62,0.46l0.5,-0.57c-0.21,-0.21 -0.47,-0.41 -0.8,-0.59c-0.32,-0.18 -0.73,-0.27 -1.22,-0.27c-0.47,0 -0.9,0.08 -1.29,0.25c-0.4,0.17 -0.74,0.41 -1.03,0.72c-0.29,0.32 -0.51,0.7 -0.67,1.15c-0.16,0.45 -0.24,0.96 -0.24,1.52zm9.97,0.66l-2.11,0l0.33,-1.08c0.13,-0.39 0.25,-0.78 0.36,-1.17c0.12,-0.39 0.23,-0.79 0.34,-1.2l0.04,0c0.11,0.41 0.23,0.81 0.34,1.2c0.12,0.39 0.24,0.78 0.37,1.17l0.33,1.08zm0.22,0.71l0.67,2.15l0.95,0l-2.38,-7.04l-1,0l-2.39,7.04l0.92,0l0.67,-2.15l2.56,0zm3.65,-4.13l0,6.28l0.9,0l0,-6.28l2.13,0l0,-0.76l-5.15,0l0,0.76l2.12,0zm4.29,-0.76l0,7.04l0.89,0l0,-7.04l-0.89,0zm2.82,0l0,7.04l0.85,0l0,-3.68c0,-0.37 -0.01,-0.74 -0.04,-1.11c-0.02,-0.37 -0.05,-0.73 -0.08,-1.09l0.04,0l0.77,1.45l2.55,4.43l0.92,0l0,-7.04l-0.85,0l0,3.64c0,0.37 0.02,0.75 0.04,1.13c0.03,0.38 0.05,0.75 0.07,1.11l-0.04,0l-0.76,-1.46l-2.55,-4.42l-0.92,0zm6.53,3.52c0,0.57 0.08,1.09 0.24,1.54c0.16,0.46 0.38,0.84 0.65,1.15c0.28,0.31 0.62,0.55 1,0.71c0.39,0.17 0.81,0.25 1.28,0.25c0.47,0 0.89,-0.08 1.27,-0.23c0.37,-0.16 0.68,-0.35 0.91,-0.59l0,-2.96l-2.31,0l0,0.74l1.49,0l0,1.84c-0.14,0.13 -0.33,0.23 -0.55,0.3c-0.23,0.08 -0.47,0.12 -0.72,0.12c-0.37,0 -0.71,-0.07 -1,-0.21c-0.29,-0.13 -0.53,-0.33 -0.73,-0.58c-0.19,-0.25 -0.34,-0.55 -0.45,-0.9c-0.1,-0.36 -0.15,-0.76 -0.15,-1.2c0,-0.44 0.05,-0.83 0.16,-1.18c0.11,-0.35 0.27,-0.65 0.47,-0.89c0.2,-0.25 0.44,-0.44 0.73,-0.57c0.28,-0.14 0.61,-0.2 0.96,-0.2c0.36,0 0.66,0.06 0.89,0.19c0.23,0.12 0.44,0.28 0.62,0.46l0.5,-0.57c-0.21,-0.21 -0.47,-0.41 -0.8,-0.59c-0.33,-0.18 -0.73,-0.27 -1.22,-0.27c-0.47,0 -0.9,0.08 -1.29,0.25c-0.4,0.17 -0.74,0.41 -1.03,0.72c-0.29,0.32 -0.51,0.7 -0.67,1.15c-0.17,0.45 -0.25,0.96 -0.25,1.52zm8.48,-3.52l1.49,7.04l1.06,0l1.04,-4.24c0.06,-0.27 0.12,-0.53 0.18,-0.8c0.06,-0.26 0.12,-0.52 0.17,-0.79l0.05,0c0.05,0.27 0.11,0.53 0.16,0.79c0.06,0.27 0.12,0.53 0.18,0.8l1.06,4.24l1.07,0l1.46,-7.04l-0.86,0l-0.74,3.83c-0.07,0.38 -0.13,0.76 -0.2,1.13c-0.06,0.38 -0.13,0.76 -0.19,1.15l-0.05,0c-0.08,-0.39 -0.17,-0.77 -0.25,-1.15c-0.09,-0.38 -0.17,-0.76 -0.26,-1.13l-0.98,-3.83l-0.81,0l-0.98,3.83c-0.08,0.38 -0.16,0.76 -0.24,1.13c-0.09,0.38 -0.17,0.76 -0.25,1.15l-0.04,0c-0.07,-0.39 -0.14,-0.77 -0.21,-1.14c-0.07,-0.37 -0.14,-0.75 -0.2,-1.14l-0.74,-3.83l-0.92,0zm12.14,4.18l-2.12,0l0.34,-1.08c0.13,-0.39 0.25,-0.78 0.36,-1.17c0.12,-0.39 0.23,-0.79 0.33,-1.2l0.05,0c0.11,0.41 0.23,0.81 0.34,1.2c0.11,0.39 0.24,0.78 0.37,1.17l0.33,1.08zm0.22,0.71l0.67,2.15l0.95,0l-2.38,-7.04l-1.01,0l-2.38,7.04l0.91,0l0.68,-2.15l2.56,0zm1.5,-4.89l2.26,7.04l1.04,0l2.23,-7.04l-0.91,0l-1.13,3.8c-0.12,0.42 -0.23,0.81 -0.33,1.17c-0.1,0.36 -0.22,0.74 -0.35,1.16l-0.04,0c-0.13,-0.42 -0.25,-0.8 -0.35,-1.16c-0.09,-0.36 -0.21,-0.75 -0.33,-1.17l-1.13,-3.8l-0.96,0zm6.49,0l0,7.04l4.16,0l0,-0.76l-3.27,0l0,-2.55l2.67,0l0,-0.77l-2.67,0l0,-2.2l3.17,0l0,-0.76l-4.06,0zm5.68,5.51l-0.54,0.62c0.31,0.32 0.67,0.57 1.09,0.76c0.43,0.19 0.88,0.28 1.38,0.28c0.37,0 0.7,-0.05 0.99,-0.16c0.3,-0.1 0.55,-0.24 0.76,-0.43c0.2,-0.18 0.36,-0.39 0.47,-0.63c0.11,-0.25 0.17,-0.51 0.17,-0.79c0,-0.25 -0.04,-0.48 -0.11,-0.68c-0.08,-0.19 -0.18,-0.37 -0.31,-0.51c-0.13,-0.15 -0.28,-0.28 -0.46,-0.39c-0.18,-0.11 -0.37,-0.21 -0.57,-0.29l-1,-0.43c-0.14,-0.06 -0.28,-0.12 -0.41,-0.19c-0.14,-0.07 -0.27,-0.15 -0.38,-0.24c-0.11,-0.09 -0.21,-0.19 -0.27,-0.31c-0.07,-0.12 -0.11,-0.26 -0.11,-0.43c0,-0.32 0.12,-0.58 0.36,-0.76c0.24,-0.18 0.56,-0.27 0.95,-0.27c0.33,0 0.63,0.06 0.89,0.18c0.26,0.11 0.5,0.28 0.71,0.48l0.48,-0.58c-0.25,-0.25 -0.55,-0.46 -0.91,-0.62c-0.36,-0.16 -0.75,-0.24 -1.17,-0.24c-0.32,0 -0.61,0.04 -0.88,0.14c-0.27,0.09 -0.5,0.22 -0.7,0.39c-0.2,0.16 -0.35,0.36 -0.46,0.59c-0.11,0.23 -0.17,0.48 -0.17,0.74c0,0.26 0.05,0.49 0.13,0.68c0.09,0.2 0.2,0.37 0.33,0.51c0.14,0.15 0.29,0.27 0.47,0.37c0.17,0.1 0.34,0.18 0.5,0.25l1.01,0.44c0.16,0.08 0.32,0.16 0.46,0.23c0.14,0.07 0.27,0.15 0.37,0.24c0.1,0.09 0.19,0.2 0.25,0.32c0.06,0.13 0.09,0.28 0.09,0.46c0,0.34 -0.13,0.62 -0.39,0.83c-0.26,0.21 -0.62,0.32 -1.08,0.32c-0.37,0 -0.72,-0.08 -1.06,-0.25c-0.34,-0.16 -0.63,-0.37 -0.88,-0.63zm10.46,1.66c0.45,0 0.85,-0.09 1.22,-0.26c0.37,-0.17 0.69,-0.42 0.96,-0.73c0.26,-0.32 0.47,-0.71 0.62,-1.16c0.14,-0.46 0.22,-0.97 0.22,-1.53c0,-0.56 -0.08,-1.06 -0.22,-1.51c-0.15,-0.44 -0.36,-0.82 -0.62,-1.13c-0.27,-0.31 -0.59,-0.55 -0.96,-0.72c-0.37,-0.17 -0.77,-0.25 -1.22,-0.25c-0.44,0 -0.84,0.08 -1.21,0.24c-0.37,0.17 -0.69,0.4 -0.95,0.72c-0.27,0.31 -0.47,0.69 -0.62,1.13c-0.15,0.45 -0.22,0.96 -0.22,1.52c0,0.56 0.07,1.07 0.22,1.53c0.15,0.45 0.35,0.84 0.62,1.16c0.26,0.31 0.58,0.56 0.95,0.73c0.37,0.17 0.77,0.26 1.21,0.26zm0,-0.78c-0.31,0 -0.59,-0.07 -0.85,-0.21c-0.25,-0.13 -0.47,-0.33 -0.65,-0.58c-0.18,-0.26 -0.33,-0.56 -0.43,-0.91c-0.1,-0.36 -0.15,-0.76 -0.15,-1.2c0,-0.44 0.05,-0.83 0.15,-1.18c0.1,-0.35 0.25,-0.65 0.43,-0.89c0.18,-0.24 0.4,-0.43 0.65,-0.56c0.26,-0.14 0.54,-0.2 0.85,-0.2c0.32,0 0.6,0.06 0.86,0.2c0.25,0.13 0.47,0.32 0.65,0.56c0.18,0.24 0.32,0.54 0.42,0.89c0.11,0.35 0.16,0.74 0.16,1.18c0,0.44 -0.05,0.84 -0.16,1.2c-0.1,0.35 -0.24,0.65 -0.42,0.91c-0.18,0.25 -0.4,0.45 -0.65,0.58c-0.26,0.14 -0.54,0.21 -0.86,0.21zm4.53,-6.39l0,7.04l0.89,0l0,-3.15l2.68,0l0,-0.75l-2.68,0l0,-2.38l3.16,0l0,-0.76l-4.05,0zm10.06,7.17c0.44,0 0.85,-0.09 1.22,-0.26c0.37,-0.17 0.68,-0.42 0.95,-0.73c0.27,-0.32 0.48,-0.71 0.62,-1.16c0.15,-0.46 0.22,-0.97 0.22,-1.53c0,-0.56 -0.07,-1.06 -0.22,-1.51c-0.14,-0.44 -0.35,-0.82 -0.62,-1.13c-0.27,-0.31 -0.58,-0.55 -0.95,-0.72c-0.37,-0.17 -0.78,-0.25 -1.22,-0.25c-0.44,0 -0.85,0.08 -1.22,0.24c-0.36,0.17 -0.68,0.4 -0.95,0.72c-0.26,0.31 -0.47,0.69 -0.61,1.13c-0.15,0.45 -0.22,0.96 -0.22,1.52c0,0.56 0.07,1.07 0.22,1.53c0.14,0.45 0.35,0.84 0.61,1.16c0.27,0.31 0.59,0.56 0.95,0.73c0.37,0.17 0.78,0.26 1.22,0.26zm0,-0.78c-0.31,0 -0.6,-0.07 -0.85,-0.21c-0.26,-0.13 -0.47,-0.33 -0.66,-0.58c-0.18,-0.26 -0.32,-0.56 -0.42,-0.91c-0.1,-0.36 -0.15,-0.76 -0.15,-1.2c0,-0.44 0.05,-0.83 0.15,-1.18c0.1,-0.35 0.24,-0.65 0.42,-0.89c0.19,-0.24 0.4,-0.43 0.66,-0.56c0.25,-0.14 0.54,-0.2 0.85,-0.2c0.32,0 0.6,0.06 0.85,0.2c0.26,0.13 0.48,0.32 0.66,0.56c0.18,0.24 0.32,0.54 0.42,0.89c0.1,0.35 0.15,0.74 0.15,1.18c0,0.44 -0.05,0.84 -0.15,1.2c-0.1,0.35 -0.24,0.65 -0.42,0.91c-0.18,0.25 -0.4,0.45 -0.66,0.58c-0.25,0.14 -0.53,0.21 -0.85,0.21zm4.53,-6.39l0,7.04l0.89,0l0,-2.79l1.26,0c0.39,0 0.74,-0.04 1.06,-0.13c0.32,-0.09 0.59,-0.23 0.82,-0.4c0.23,-0.18 0.41,-0.41 0.53,-0.68c0.13,-0.27 0.19,-0.59 0.19,-0.97c0,-0.38 -0.06,-0.71 -0.19,-0.97c-0.12,-0.27 -0.3,-0.48 -0.53,-0.64c-0.22,-0.16 -0.49,-0.28 -0.82,-0.35c-0.32,-0.07 -0.67,-0.11 -1.06,-0.11l-2.15,0zm2.05,3.52l-1.16,0l0,-2.8l1.16,0c0.6,0 1.06,0.1 1.36,0.3c0.3,0.19 0.45,0.55 0.45,1.05c0,0.5 -0.15,0.87 -0.45,1.1c-0.29,0.24 -0.75,0.35 -1.36,0.35zm4.12,-3.52l0,7.04l0.89,0l0,-2.79l1.27,0c0.39,0 0.74,-0.04 1.06,-0.13c0.31,-0.09 0.59,-0.23 0.82,-0.4c0.23,-0.18 0.4,-0.41 0.53,-0.68c0.12,-0.27 0.19,-0.59 0.19,-0.97c0,-0.38 -0.07,-0.71 -0.19,-0.97c-0.13,-0.27 -0.3,-0.48 -0.53,-0.64c-0.22,-0.16 -0.5,-0.28 -0.82,-0.35c-0.32,-0.07 -0.67,-0.11 -1.06,-0.11l-2.16,0zm2.05,3.52l-1.16,0l0,-2.8l1.16,0c0.61,0 1.06,0.1 1.36,0.3c0.31,0.19 0.46,0.55 0.46,1.05c0,0.5 -0.15,0.87 -0.45,1.1c-0.3,0.24 -0.75,0.35 -1.37,0.35zm6.73,3.65c0.44,0 0.85,-0.09 1.21,-0.26c0.37,-0.17 0.69,-0.42 0.96,-0.73c0.27,-0.32 0.47,-0.71 0.62,-1.16c0.15,-0.46 0.22,-0.97 0.22,-1.53c0,-0.56 -0.07,-1.06 -0.22,-1.51c-0.15,-0.44 -0.35,-0.82 -0.62,-1.13c-0.27,-0.31 -0.59,-0.55 -0.96,-0.72c-0.36,-0.17 -0.77,-0.25 -1.21,-0.25c-0.45,0 -0.85,0.08 -1.22,0.24c-0.37,0.17 -0.68,0.4 -0.95,0.72c-0.26,0.31 -0.47,0.69 -0.62,1.13c-0.14,0.45 -0.22,0.96 -0.22,1.52c0,0.56 0.08,1.07 0.22,1.53c0.15,0.45 0.36,0.84 0.62,1.16c0.27,0.31 0.58,0.56 0.95,0.73c0.37,0.17 0.77,0.26 1.22,0.26zm0,-0.78c-0.32,0 -0.6,-0.07 -0.86,-0.21c-0.25,-0.13 -0.47,-0.33 -0.65,-0.58c-0.18,-0.26 -0.32,-0.56 -0.42,-0.91c-0.1,-0.36 -0.15,-0.76 -0.15,-1.2c0,-0.44 0.05,-0.83 0.15,-1.18c0.1,-0.35 0.24,-0.65 0.42,-0.89c0.18,-0.24 0.4,-0.43 0.65,-0.56c0.26,-0.14 0.54,-0.2 0.86,-0.2c0.31,0 0.6,0.06 0.85,0.2c0.25,0.13 0.47,0.32 0.65,0.56c0.19,0.24 0.33,0.54 0.43,0.89c0.1,0.35 0.15,0.74 0.15,1.18c0,0.44 -0.05,0.84 -0.15,1.2c-0.1,0.35 -0.24,0.65 -0.43,0.91c-0.18,0.25 -0.4,0.45 -0.65,0.58c-0.25,0.14 -0.54,0.21 -0.85,0.21zm5.41,-3.05l0,-2.62l1.18,0c0.55,0 0.98,0.1 1.27,0.28c0.29,0.19 0.44,0.51 0.44,0.98c0,0.46 -0.15,0.8 -0.44,1.02c-0.29,0.23 -0.72,0.34 -1.27,0.34l-1.18,0zm2.97,3.7l1.01,0l-1.78,-3.07c0.48,-0.12 0.86,-0.34 1.15,-0.67c0.29,-0.33 0.43,-0.77 0.43,-1.32c0,-0.37 -0.06,-0.67 -0.18,-0.92c-0.13,-0.25 -0.29,-0.46 -0.51,-0.62c-0.22,-0.15 -0.48,-0.27 -0.79,-0.33c-0.3,-0.07 -0.63,-0.11 -0.99,-0.11l-2.2,0l0,7.04l0.89,0l0,-2.97l1.28,0l1.69,2.97zm3.62,-6.28l0,6.28l0.9,0l0,-6.28l2.12,0l0,-0.76l-5.14,0l0,0.76l2.12,0zm4.26,-0.76l0,4.13c0,0.57 0.06,1.04 0.19,1.43c0.13,0.39 0.31,0.7 0.53,0.94c0.23,0.24 0.49,0.41 0.81,0.51c0.31,0.11 0.64,0.16 1,0.16c0.36,0 0.69,-0.05 1,-0.16c0.3,-0.1 0.57,-0.27 0.79,-0.51c0.23,-0.24 0.41,-0.55 0.54,-0.94c0.12,-0.39 0.19,-0.86 0.19,-1.43l0,-4.13l-0.86,0l0,4.15c0,0.43 -0.04,0.78 -0.13,1.07c-0.08,0.28 -0.2,0.51 -0.35,0.68c-0.15,0.17 -0.33,0.3 -0.53,0.37c-0.2,0.08 -0.42,0.12 -0.65,0.12c-0.23,0 -0.45,-0.04 -0.65,-0.12c-0.2,-0.07 -0.37,-0.2 -0.52,-0.37c-0.14,-0.17 -0.26,-0.4 -0.34,-0.68c-0.09,-0.29 -0.13,-0.64 -0.13,-1.07l0,-4.15l-0.89,0zm6.95,0l0,7.04l0.84,0l0,-3.68c0,-0.37 -0.01,-0.74 -0.03,-1.11c-0.03,-0.37 -0.06,-0.73 -0.08,-1.09l0.04,0l0.76,1.45l2.55,4.43l0.93,0l0,-7.04l-0.85,0l0,3.64c0,0.37 0.01,0.75 0.04,1.13c0.02,0.38 0.04,0.75 0.07,1.11l-0.05,0l-0.76,-1.46l-2.54,-4.42l-0.92,0zm6.94,0l0,7.04l0.89,0l0,-7.04l-0.89,0zm4.28,0.76l0,6.28l0.9,0l0,-6.28l2.12,0l0,-0.76l-5.15,0l0,0.76l2.13,0zm4.29,-0.76l0,7.04l0.89,0l0,-7.04l-0.89,0zm2.82,0l0,7.04l4.16,0l0,-0.76l-3.27,0l0,-2.55l2.67,0l0,-0.77l-2.67,0l0,-2.2l3.16,0l0,-0.76l-4.05,0zm5.67,5.51l-0.54,0.62c0.31,0.32 0.68,0.57 1.1,0.76c0.42,0.19 0.88,0.28 1.37,0.28c0.37,0 0.7,-0.05 1,-0.16c0.29,-0.1 0.54,-0.24 0.75,-0.43c0.21,-0.18 0.36,-0.39 0.48,-0.63c0.11,-0.25 0.16,-0.51 0.16,-0.79c0,-0.25 -0.04,-0.48 -0.11,-0.68c-0.08,-0.19 -0.18,-0.37 -0.31,-0.51c-0.13,-0.15 -0.28,-0.28 -0.46,-0.39c-0.18,-0.11 -0.37,-0.21 -0.57,-0.29l-0.99,-0.43c-0.15,-0.06 -0.29,-0.12 -0.42,-0.19c-0.14,-0.07 -0.26,-0.15 -0.38,-0.24c-0.11,-0.09 -0.2,-0.19 -0.27,-0.31c-0.07,-0.12 -0.1,-0.26 -0.1,-0.43c0,-0.32 0.12,-0.58 0.36,-0.76c0.24,-0.18 0.55,-0.27 0.95,-0.27c0.32,0 0.62,0.06 0.88,0.18c0.26,0.11 0.5,0.28 0.71,0.48l0.49,-0.58c-0.25,-0.25 -0.56,-0.46 -0.92,-0.62c-0.35,-0.16 -0.74,-0.24 -1.16,-0.24c-0.33,0 -0.62,0.04 -0.89,0.14c-0.27,0.09 -0.5,0.22 -0.7,0.39c-0.19,0.16 -0.35,0.36 -0.46,0.59c-0.11,0.23 -0.16,0.48 -0.16,0.74c0,0.26 0.04,0.49 0.13,0.68c0.08,0.2 0.19,0.37 0.33,0.51c0.13,0.15 0.29,0.27 0.46,0.37c0.17,0.1 0.34,0.18 0.5,0.25l1.01,0.44c0.17,0.08 0.32,0.16 0.46,0.23c0.15,0.07 0.27,0.15 0.37,0.24c0.11,0.09 0.19,0.2 0.25,0.32c0.06,0.13 0.09,0.28 0.09,0.46c0,0.34 -0.13,0.62 -0.39,0.83c-0.25,0.21 -0.61,0.32 -1.08,0.32c-0.36,0 -0.72,-0.08 -1.06,-0.25c-0.34,-0.16 -0.63,-0.37 -0.88,-0.63z"/>
      </g>
     </g>
    </g>
   </g>
  </g>
 </g>
</svg>